<svg width="800" height="800" viewBox="0 0 800 800" fill="none" xmlns="http://www.w3.org/2000/svg">
<path d="M134.579 363.864L134.158 658.102L389.069 799.217V505.634L134.579 363.864Z" fill="#AF4749"/>
<path d="M580.532 340.128L619.69 352.485L587.022 383.528L580.532 340.128ZM184.03 342.204L164.132 360.872L181.145 376.617L184.03 342.204Z" fill="#C8696B"/>
<path d="M407.618 521.523C397.379 515.843 382.018 515.14 373.328 519.962L139.818 649.532C131.128 654.353 132.388 662.877 142.626 668.557L370.52 795.009C380.758 800.689 396.12 801.387 404.809 796.57L638.32 667C647.009 662.179 645.749 653.655 635.511 647.975L407.618 521.523Z" fill="#AF4749"/>
<path d="M416.188 10.2723C416.188 1.65102 410.924 -2.32345 404.435 1.3957L192.898 122.74C186.413 126.46 181.145 136.477 181.145 145.098V610.8C181.145 619.417 186.413 623.396 192.898 619.677L404.435 498.332C410.924 494.613 416.188 484.591 416.188 475.974V10.2723Z" fill="#B16061"/>
<path d="M411.498 0.47229L422.86 6.94038L410.409 12.7787L404.975 6.54889L411.498 0.47229Z" fill="#B16061"/>
<path d="M427 16.4765C427 7.85527 421.732 3.87654 415.247 7.59569L203.711 128.94C197.226 132.66 191.958 142.681 191.958 151.302V617C191.958 625.621 197.226 629.6 203.711 625.877L415.247 504.536C421.732 500.813 427 490.796 427 482.174V16.4765Z" fill="#FFF7F7"/>
<path d="M470.971 58.8979C470.971 50.2766 465.703 46.2979 459.218 50.0213L247.681 171.362C241.196 175.085 235.928 185.102 235.928 193.723V659.421C235.928 668.043 241.196 672.021 247.681 668.302L459.218 546.958C465.703 543.238 470.971 533.217 470.971 524.596V58.8979Z" fill="#B16061"/>
<path d="M466.281 49.0979L477.643 55.566L465.192 61.4L459.758 55.1745L466.281 49.0979Z" fill="#B16061"/>
<path d="M481.784 65.0978C481.784 56.4808 476.515 52.5021 470.03 56.2213L258.494 177.566C252.005 181.285 246.741 191.306 246.741 199.923V665.625C246.741 674.247 252.005 678.226 258.494 674.502L470.03 553.162C476.515 549.438 481.784 539.421 481.784 530.8V65.0978Z" fill="#FFF7F7"/>
<path d="M525.754 107.523C525.754 98.9021 520.486 94.9234 514.001 98.6468L302.464 219.987C295.975 223.711 290.711 233.728 290.711 242.349V708.047C290.711 716.668 295.975 720.647 302.464 716.928L514.001 595.583C520.486 591.864 525.754 581.842 525.754 573.221V107.523Z" fill="#B16061"/>
<path d="M521.06 97.7191L532.422 104.191L519.971 110.026L514.541 103.796L521.06 97.7191Z" fill="#B16061"/>
<path d="M536.562 113.723C536.562 105.106 531.298 101.128 524.813 104.847L313.273 226.192C306.788 229.911 301.524 239.932 301.524 248.549V714.251C301.524 722.872 306.788 726.847 313.273 723.128L524.813 601.783C531.298 598.064 536.562 588.047 536.562 579.426V113.723Z" fill="#FFF7F7"/>
<path d="M580.532 156.149C580.532 147.528 575.269 143.549 568.784 147.268L357.243 268.613C350.758 272.332 345.494 282.353 345.494 290.974V756.672C345.494 765.294 350.758 769.272 357.243 765.549L568.784 644.208C575.269 640.485 580.532 630.468 580.532 621.847V156.149Z" fill="#B16061"/>
<path d="M575.843 146.345L587.205 152.817L574.754 158.651L569.32 152.421L575.843 146.345Z" fill="#B16061"/>
<path d="M591.345 162.349C591.345 153.728 586.081 149.753 579.592 153.472L368.056 274.817C361.571 278.536 356.303 288.553 356.303 297.174V762.877C356.303 771.494 361.571 775.472 368.056 771.753L579.592 650.409C586.081 646.689 591.345 636.668 591.345 628.051V162.349Z" fill="#FFF7F7"/>
<path d="M387.668 502.025L643.537 362.894L643.979 659.306L387.668 605.391V502.025Z" fill="#AF4749"/>
<path d="M363.805 497.213L418.409 494.949V789.021C418.409 789.021 411.456 795.03 401.09 798.119C397.703 799.128 393.941 799.545 389.954 799.711C382.154 800.03 373.711 796.54 364.779 791.826L363.805 497.213Z" fill="#C8696B"/>
<path d="M364.635 500.826L176.005 391.919V454.809L364.635 563.715V500.826ZM364.635 723.511L176.005 614.604V679.77L364.635 788.677V723.511Z" fill="#AF4749"/>
<path d="M364.634 550.906L349.417 542.119V752.557L364.634 761.345V550.906Z" fill="#AF4749"/>
<path d="M181.145 330.026V349.549L175.962 352.54C168.358 356.932 169.311 364.617 178.094 369.685L373.613 482.566C382.396 487.638 395.703 488.191 403.307 483.8L603.09 368.455C610.694 364.064 609.741 356.383 600.958 351.311L591.345 345.762V324.932L635.558 351.766C645.779 357.668 646.894 366.608 638.039 371.719L405.562 505.936C396.711 511.047 381.23 510.404 371.009 504.506L143.494 373.149C133.273 367.247 132.162 358.311 141.013 353.2L181.145 330.026Z" fill="#C8696B"/>
<path d="M418.252 606.017V748.834L614.107 649.102L418.252 606.017ZM236.035 646.745V627.817L219.856 637.404L236.035 646.745Z" fill="#AF4749"/>
<path d="M247.269 621.579L343.622 564.417L344.277 608.298L256.924 658.736L247.269 653.23V621.579ZM302.349 647.132L344.243 622.945V709.587L302.349 685.404V647.132Z" fill="#FFF7F7"/>
<path d="M192.162 466.732L181.145 461.238V616.936L191.958 625.991L192.162 466.732Z" fill="#B16061"/>
<path d="M192.162 466.732L252.026 500.979L192.162 535.545V466.732ZM192.162 551.191V574.047L284.775 520.123L265.375 508.923L192.162 551.191Z" fill="#FFF7F7"/>
<path d="M236.005 491.966V646.511L247.269 653.017V498.387L236.005 491.966ZM290.809 523.608V678.434L302.349 685.098V530.064L290.809 523.608Z" fill="#B16061"/>
<path d="M172.243 545.268L181.8 550.783V599.651C181.8 608.196 186.966 618.111 193.332 621.787L332.749 702.281C339.111 705.953 344.277 702 344.277 693.46V644.591L353.835 650.106V706.26C353.835 715.804 348.06 720.221 340.949 716.115L185.128 626.153C178.018 622.047 172.243 610.966 172.243 601.417V545.268Z" fill="#C8696B"/>
<path d="M353.835 650.494L344.277 644.974V570.034C344.277 561.494 339.111 551.574 332.749 547.902L193.332 467.409C186.966 463.732 181.8 467.685 181.8 476.226V551.17L172.243 545.651V463.43C172.243 453.881 178.018 449.464 185.128 453.57L340.949 543.532C348.06 547.638 353.835 558.723 353.835 568.268V650.494Z" fill="#C8696B"/>
<path d="M429.188 696.741V585.855C429.188 585.855 424.03 562.349 463.328 546.557L616.792 457.958C616.792 457.958 624.954 450.438 635.001 457.294C645.047 464.145 657.345 470.196 657.345 470.196C657.345 470.196 479.315 574.583 477.928 573.783C476.537 572.979 462.549 578.213 462.549 600.443V730.183L437.354 715.638C437.354 715.638 429.188 708.426 429.188 696.741Z" fill="#732728"/>
<path d="M662.243 480.387C662.243 471.877 657.06 467.962 650.681 471.643L471.243 575.243C464.86 578.928 459.681 588.825 459.681 597.336V720.668C459.681 729.174 464.86 733.094 471.243 729.408L650.681 625.809C657.06 622.128 662.243 612.225 662.243 603.719V480.387Z" fill="#C46769"/>
<path d="M630.243 521.57C630.243 515.77 626.711 513.102 622.362 515.613L507.545 581.902C503.196 584.413 499.664 591.157 499.664 596.957C499.664 602.757 503.196 605.43 507.545 602.915L622.362 536.626C626.711 534.115 630.243 527.37 630.243 521.57ZM630.243 562.234C630.243 556.434 626.711 553.766 622.362 556.277L507.545 622.566C503.196 625.077 499.664 631.821 499.664 637.621C499.664 643.421 503.196 646.094 507.545 643.579L622.362 577.289C626.711 574.779 630.243 568.034 630.243 562.234ZM630.243 601.528C630.243 595.728 626.711 593.06 622.362 595.57L507.545 661.86C503.196 664.37 499.664 671.119 499.664 676.919C499.664 682.719 503.196 685.387 507.545 682.877L622.362 616.587C626.711 614.077 630.243 607.328 630.243 601.528Z" fill="#FFAEAF"/>
</svg>
