<svg width="800" height="800" viewBox="0 0 800 800" fill="none" xmlns="http://www.w3.org/2000/svg">
<path d="M633.359 733.359H166.641C153.125 733.359 140.078 730.703 127.656 725.469C115.781 720.469 105 713.203 95.8594 703.984C86.7188 694.844 79.4531 684.141 74.4531 672.188C69.2188 659.844 66.5625 646.719 66.5625 633.281V166.641C66.5625 153.203 69.2188 140.078 74.4531 127.734C79.4531 115.859 86.7188 105.078 95.9375 95.9375C105.078 86.7969 115.781 79.6094 127.734 74.5312C140.078 69.2969 153.125 66.6406 166.641 66.6406H633.281C646.797 66.6406 659.844 69.2969 672.266 74.5312C684.141 79.5312 694.922 86.7969 704.062 96.0156C713.203 105.156 720.469 115.859 725.469 127.813C730.703 140.156 733.359 153.281 733.359 166.719V250C733.359 268.437 718.437 283.359 700 283.359C681.562 283.359 666.641 268.437 666.641 250V166.641C666.641 162.109 665.781 157.734 663.984 153.672C662.344 149.687 659.922 146.172 656.875 143.125C653.75 140 650.234 137.656 646.25 135.937C642.188 134.219 637.812 133.359 633.281 133.359H166.641C162.109 133.359 157.734 134.219 153.672 135.937C149.688 137.656 146.094 140 143.047 143.047C139.922 146.172 137.5 149.687 135.859 153.672C134.141 157.812 133.203 162.188 133.203 166.641V633.281C133.203 637.812 134.062 642.188 135.859 646.25C137.5 650.234 139.922 653.75 142.969 656.797C146.094 659.922 149.609 662.266 153.594 663.984C157.656 665.703 162.031 666.563 166.562 666.563H633.203C637.734 666.563 642.109 665.703 646.172 663.984C650.156 662.266 653.75 659.922 656.797 656.875C659.922 653.75 662.344 650.234 663.984 646.25C665.703 642.109 666.641 637.734 666.641 633.281V550C666.641 531.563 681.562 516.641 700 516.641C718.437 516.641 733.359 531.563 733.359 550V633.359C733.359 646.797 730.703 659.922 725.469 672.266C720.469 684.141 713.203 694.922 703.984 704.063C694.844 713.203 684.141 720.391 672.188 725.469C659.922 730.703 646.797 733.359 633.359 733.359Z" fill="#FF3639"/>
<path d="M600 533.359C591.484 533.359 582.969 530.078 576.406 523.594C563.359 510.547 563.359 489.453 576.406 476.484L652.812 400.078L576.406 323.672C563.359 310.625 563.359 289.531 576.406 276.563C589.453 263.516 610.547 263.516 623.516 276.563L723.516 376.562C736.562 389.609 736.562 410.703 723.516 423.672L623.516 523.672C617.031 530.078 608.516 533.359 600 533.359Z" fill="#5F6379"/>
<path d="M700 433.359H400C381.563 433.359 366.641 418.438 366.641 400C366.641 381.563 381.563 366.641 400 366.641H700C718.438 366.641 733.359 381.563 733.359 400C733.359 418.438 718.438 433.359 700 433.359Z" fill="#5F6379"/>
</svg>
